<svg width="1920" height="870" viewBox="0 0 1920 870" fill="none" xmlns="http://www.w3.org/2000/svg">
<rect width="1920" height="870" fill="#F5F5F5"/>
<g clip-path="url(#clip0_1_5)">
<rect width="1920" height="4490" fill="white"/>
<g filter="url(#filter0_d_1_5)">
<path d="M0 0H1920V862H0V0Z" fill="#5236FF"/>
<mask id="mask0_1_5" style="mask-type:alpha" maskUnits="userSpaceOnUse" x="0" y="0" width="1920" height="862">
<path d="M0 0H1920V862H0V0Z" fill="#5236FF"/>
</mask>
<g mask="url(#mask0_1_5)">
<path d="M453.5 -114.915C453.5 224.32 132.34 499.45 -264 499.45C-660.34 499.45 -981.5 224.32 -981.5 -114.915C-981.5 -454.15 -660.34 -729.281 -264 -729.281C132.34 -729.281 453.5 -454.15 453.5 -114.915Z" stroke="#735DFD"/>
<path d="M3075.5 769.162C3075.5 1160.9 2704.64 1478.58 2247 1478.58C1789.36 1478.58 1418.5 1160.9 1418.5 769.162C1418.5 377.43 1789.36 59.7412 2247 59.7412C2704.64 59.7412 3075.5 377.43 3075.5 769.162Z" stroke="#735DFD"/>
<path d="M2825.5 769.161C2825.5 1042.66 2566.57 1264.49 2247 1264.49C1927.43 1264.49 1668.5 1042.66 1668.5 769.161C1668.5 495.667 1927.43 273.83 2247 273.83C2566.57 273.83 2825.5 495.667 2825.5 769.161Z" stroke="#735DFD"/>
</g>
</g>
<mask id="mask1_1_5" style="mask-type:alpha" maskUnits="userSpaceOnUse" x="0" y="0" width="1920" height="809">
<rect width="1920" height="809" fill="#C4C4C4"/>
</mask>
<g mask="url(#mask1_1_5)">
<path d="M601.5 -108.846C601.5 286.398 280.266 606.809 -116 606.809C-512.266 606.809 -833.5 286.398 -833.5 -108.846C-833.5 -504.089 -512.266 -824.5 -116 -824.5C280.266 -824.5 601.5 -504.089 601.5 -108.846Z" stroke="#E3E3E3"/>
<path d="M2736.5 -28.1311C2736.5 428.259 2365.57 798.238 1908 798.238C1450.43 798.238 1079.5 428.259 1079.5 -28.1311C1079.5 -484.521 1450.43 -854.5 1908 -854.5C2365.57 -854.5 2736.5 -484.521 2736.5 -28.1311Z" stroke="#E3E3E3"/>
<path d="M2486.5 -28.1331C2486.5 290.54 2227.5 548.878 1908 548.878C1588.5 548.878 1329.5 290.54 1329.5 -28.1331C1329.5 -346.806 1588.5 -605.145 1908 -605.145C2227.5 -605.145 2486.5 -346.806 2486.5 -28.1331Z" stroke="#E3E3E3"/>
</g>
</g>
<defs>
<filter id="filter0_d_1_5" x="-4" y="0" width="1928" height="870" filterUnits="userSpaceOnUse" color-interpolation-filters="sRGB">
<feFlood flood-opacity="0" result="BackgroundImageFix"/>
<feColorMatrix in="SourceAlpha" type="matrix" values="0 0 0 0 0 0 0 0 0 0 0 0 0 0 0 0 0 0 127 0" result="hardAlpha"/>
<feOffset dy="4"/>
<feGaussianBlur stdDeviation="2"/>
<feComposite in2="hardAlpha" operator="out"/>
<feColorMatrix type="matrix" values="0 0 0 0 0 0 0 0 0 0 0 0 0 0 0 0 0 0 0.25 0"/>
<feBlend mode="normal" in2="BackgroundImageFix" result="effect1_dropShadow_1_5"/>
<feBlend mode="normal" in="SourceGraphic" in2="effect1_dropShadow_1_5" result="shape"/>
</filter>
<clipPath id="clip0_1_5">
<rect width="1920" height="4490" fill="white"/>
</clipPath>
</defs>
</svg>
